PathFileType	4	(X/Y/Z)	C:/Users/opensim2020/Desktop/walking_exp_matlab/subject06_walking21_straight_02.trc	
DataRate	CameraRate	NumFrames	NumMarkers	Units	OrigDataRate	OrigDataStartFrame	OrigNumFrames	
100.00	100.00	4	44	mm	100.00	1261	172	
Frame#	Time	LFHD			RFHD			LBHD			RBHD			C7			T10			CLAV			STRN			RBAK			LSHO			LUPA			LELB			LFRM			LWRA			LWRB			LFIN			RSHO			RUPA			RELB			RFRM			RWRA			RWRB			RFIN			LASI			RASI			LPSI			RPSI			LTHI			LKNE			LTIB			LANK			LHEE			LTOE			RTHI			RKNE			RTIB			RANK			RHEE			RTOE			*39			*40			*41			*42			*43			
		X1	Y1	Z1	X2	Y2	Z2	X3	Y3	Z3	X4	Y4	Z4	X5	Y5	Z5	X6	Y6	Z6	X7	Y7	Z7	X8	Y8	Z8	X9	Y9	Z9	X10	Y10	Z10	X11	Y11	Z11	X12	Y12	Z12	X13	Y13	Z13	X14	Y14	Z14	X15	Y15	Z15	X16	Y16	Z16	X17	Y17	Z17	X18	Y18	Z18	X19	Y19	Z19	X20	Y20	Z20	X21	Y21	Z21	X22	Y22	Z22	X23	Y23	Z23	X24	Y24	Z24	X25	Y25	Z25	X26	Y26	Z26	X27	Y27	Z27	X28	Y28	Z28	X29	Y29	Z29	X30	Y30	Z30	X31	Y31	Z31	X32	Y32	Z32	X33	Y33	Z33	X34	Y34	Z34	X35	Y35	Z35	X36	Y36	Z36	X37	Y37	Z37	X38	Y38	Z38	X39	Y39	Z39	X40	Y40	Z40	X41	Y41	Z41	X42	Y42	Z42	X43	Y43	Z43	X44	Y44	Z44	

1	0.000	1460.55811	1440.08020	1671.65027	1329.68372	1439.03210	1653.82593	1462.26904	1572.37390	1614.76221	1334.29736	1570.21655	1602.76086	1405.02356	1570.27332	1453.13904	1403.12646	1598.51843	1124.45337	1414.59290	1458.20776	1379.84485	1427.53674	1414.33777	1206.76465	1323.39380	1631.99805	1279.70251	1569.31665	1535.13611	1410.21301	1642.73572	1534.09900	1210.14709	1658.00452	1525.90955	1098.83496	1693.10291	1431.74915	988.78479	1670.26538	1306.84143	945.84082	1693.32715	1353.40967	897.96454	1708.71948	1269.69641	867.48383	1249.08899	1491.81348	1408.61511	1162.66492	1531.47705	1209.95728	1152.33057	1529.40601	1087.61060	1135.78357	1518.99866	967.55255	1167.89722	1466.80566	825.14844	1126.14050	1520.08215	829.74817	1126.54382	1488.21057	750.86566	1525.81665	1429.12366	966.77936	1306.71313	1409.23621	974.80286	1485.20105	1584.91943	989.74945	1318.47070	1563.46118	995.08429	1586.36560	1492.31738	644.81018	1575.80176	1480.24817	481.39481	1547.06238	1674.07043	330.46396	1496.30481	1802.82007	224.73709	1443.83264	1826.02100	246.21098	1506.52319	1762.71265	81.27009	1262.24231	1425.18408	637.24402	1299.23181	1401.21497	517.16077	1323.75708	1430.80310	250.95351	1386.31226	1434.22583	71.33454	1435.50879	1469.63745	48.67715	1381.65771	1281.64954	41.03098	1398.39758	1540.58545	1704.81604												 
2	0.010	1461.64697	1429.09985	1672.88049	1330.67590	1428.15222	1655.20166	1463.40210	1561.27625	1615.71387	1335.38892	1559.08069	1603.80286	1406.06116	1558.98340	1454.39978	1403.81689	1587.32227	1125.59656	1415.47070	1446.97302	1380.97632	1428.12207	1403.32410	1207.80798	1324.91321	1621.51416	1281.38330	1570.41455	1523.64722	1410.94360	1643.02686	1524.39331	1210.28125	1657.87866	1516.82483	1098.83020	1692.77625	1425.17639	986.54193	1669.23059	1301.17249	940.23267	1692.30664	1349.03149	893.59460	1707.29346	1266.14307	860.68683	1249.93591	1480.59351	1409.85059	1163.23389	1518.74402	1210.99011	1152.52075	1515.88354	1088.73315	1136.34497	1502.99036	968.79797	1169.32935	1448.07410	827.77057	1127.27698	1500.99939	830.88306	1127.87878	1467.27771	753.03888	1526.45215	1417.39160	968.10260	1307.23694	1398.49524	975.79803	1486.27051	1573.61255	990.63953	1319.18787	1552.55273	995.96832	1586.65332	1473.33691	646.20258	1575.71533	1457.40674	483.24124	1548.75574	1650.01648	331.75156	1499.28833	1779.01978	225.27753	1447.79114	1804.32349	246.84300	1507.29724	1734.88342	83.41280	1263.05554	1417.58337	637.87665	1299.52039	1396.07349	517.20154	1323.96936	1429.24658	251.16927	1386.46582	1434.23022	71.49609	1435.63831	1469.71021	48.70550	1381.74927	1281.63623	40.84277	1399.60254	1529.72705	1705.93079												 
3	0.020	1462.80298	1418.05823	1673.93665	1331.81885	1417.19910	1656.53442	1464.62329	1550.17310	1616.62085	1336.54333	1548.13635	1604.95276	1407.01465	1547.84863	1455.55957	1404.49475	1576.20190	1126.66577	1416.36450	1435.82849	1381.98694	1428.80237	1392.36584	1208.83105	1325.68469	1610.66174	1282.54968	1571.48914	1512.26270	1411.64343	1643.31177	1514.60962	1210.55615	1657.76965	1507.77686	1098.91150	1692.15271	1418.79163	984.05652	1668.21277	1296.11926	934.23920	1691.32288	1345.29736	888.96387	1705.94348	1263.40076	853.60333	1250.79541	1469.49121	1411.01062	1163.72449	1506.24548	1211.93982	1153.34094	1501.60718	1089.63086	1136.96216	1486.92627	970.10059	1170.60791	1429.02161	830.58032	1128.31482	1481.92297	832.37152	1129.35767	1446.11230	755.49426	1526.96692	1405.65210	969.61938	1307.72192	1387.79871	976.87823	1486.43274	1561.65747	990.99506	1319.96338	1541.76221	996.83789	1586.83826	1454.34277	647.85046	1575.38159	1434.72864	485.32217	1550.52100	1625.54370	331.92667	1502.80774	1754.64502	224.81497	1451.40820	1781.54187	245.59358	1508.55103	1706.21423	84.20973	1263.87683	1410.76355	637.90479	1299.74084	1391.23596	517.17920	1324.17029	1427.44556	251.45441	1386.59326	1434.16309	71.62528	1435.77136	1469.76208	48.82858	1381.36914	1281.92871	40.48848	1400.88159	1518.79395	1706.95483												 
4	0.030	1463.94690	1406.94299	1674.84021	1332.91003	1406.19031	1657.55432	1465.79541	1539.01453	1617.42603	1337.69885	1537.03809	1605.91138	1407.97754	1536.74597	1456.58337	1405.11646	1565.11572	1127.68408	1417.14307	1424.81738	1382.82507	1429.44080	1381.47583	1209.71045	1326.49890	1599.82629	1283.61768	1572.49939	1501.00232	1412.36072	1643.61096	1504.63538	1210.93921	1657.63757	1498.87109	1099.07629	1691.52698	1412.81018	981.55481	1667.16150	1291.63281	927.93793	1690.40759	1342.22034	884.20532	1704.80078	1261.50244	846.29907	1251.65454	1458.52087	1412.09070	1164.34399	1493.94336	1212.91821	1153.69275	1487.93811	1090.65222	1137.55676	1470.81738	971.45020	1172.40710	1409.08167	833.78223	1129.40405	1462.53235	833.89758	1130.74585	1424.74707	758.00629	1527.41003	1393.84448	971.10773	1308.16211	1377.11157	977.84430	1488.08508	1550.92554	992.38751	1320.77246	1531.07898	997.73328	1586.85144	1435.60693	649.61121	1574.67468	1412.24475	487.49576	1552.28369	1600.81482	331.15326	1505.91602	1729.34741	222.51418	1454.88049	1757.80310	242.73805	1509.95862	1676.31165	83.65285	1264.63879	1403.77307	638.74274	1300.01086	1386.33337	517.08032	1324.33301	1425.58386	251.59949	1386.72766	1434.04871	71.74119	1435.93750	1469.81165	48.92594	1381.39575	1281.93079	40.36013	1402.28479	1507.83118	1707.93140												 
